<svg xmlns="http://www.w3.org/2000/svg" xmlns:xlink="http://www.w3.org/1999/xlink" viewBox="0 0 244.27 335.87"><defs><mask id="a" x="0" y="0" width="244.27" height="335.87" maskUnits="userSpaceOnUse"><g transform="translate(-378.73 -369.5)"><path d="M531.4,369.5H401.63a23,23,0,0,0-22.9,22.9V682.47a23,23,0,0,0,22.9,22.9H600.1a23,23,0,0,0,22.9-22.9V461.1Z" style="fill:#fff"/></g></mask><linearGradient id="d" x1="45.62" y1="986.72" x2="45.62" y2="982" gradientTransform="matrix(16.45, 0, 0, -16.45, -548.72, 16322.11)" gradientUnits="userSpaceOnUse"><stop offset="0" stop-color="#311b92" stop-opacity="0.2"/><stop offset="1" stop-color="#311b92" stop-opacity="0.02"/></linearGradient><radialGradient id="i" cx="20.89" cy="1005.29" r="8.32" gradientTransform="matrix(47.33, 0, 0, -47.33, -602.33, 47962.17)" gradientUnits="userSpaceOnUse"><stop offset="0" stop-color="#fff" stop-opacity="0.1"/><stop offset="1" stop-color="#fff" stop-opacity="0"/></radialGradient></defs><title>Google Forms logo</title><g style="mask:url(#a)"><path d="M531.4,369.5H401.63a23,23,0,0,0-22.9,22.9V682.47a23,23,0,0,0,22.9,22.9H600.1a23,23,0,0,0,22.9-22.9V461.1l-53.43-38.17Z" transform="translate(-378.73 -369.5)" style="fill:#673ab7"/></g><g style="mask:url(#a)"><path d="M478,629h84V613.77H478Zm0-91.6V552.7h84V537.44Zm-19.08,7.63a11.45,11.45,0,1,1-11.45-11.45A11.46,11.46,0,0,1,458.88,545.07Zm0,38.17a11.45,11.45,0,1,1-11.45-11.45A11.46,11.46,0,0,1,458.88,583.24Zm0,38.17A11.45,11.45,0,1,1,447.43,610,11.46,11.46,0,0,1,458.88,621.41ZM478,590.87h84V575.61H478Z" transform="translate(-378.73 -369.5)" style="fill:#f1f1f1"/></g><g style="mask:url(#a)"><polygon points="159.37 84.9 244.27 169.79 244.27 91.6 159.37 84.9" style="fill:url(#d)"/></g><g style="mask:url(#a)"><path d="M531.4,369.5v68.7a22.89,22.89,0,0,0,22.9,22.9H623Z" transform="translate(-378.73 -369.5)" style="fill:#b39ddb"/></g><g style="mask:url(#a)"><path d="M401.63,369.5a23,23,0,0,0-22.9,22.9v1.91a23,23,0,0,1,22.9-22.9H531.4V369.5Z" transform="translate(-378.73 -369.5)" style="fill:#fff;fill-opacity:0.20000000298023224"/></g><g style="mask:url(#a)"><path d="M600.1,703.47H401.63a23,23,0,0,1-22.9-22.9v1.91a23,23,0,0,0,22.9,22.9H600.1a23,23,0,0,0,22.9-22.9v-1.91A23,23,0,0,1,600.1,703.47Z" transform="translate(-378.73 -369.5)" style="fill:#311b92;fill-opacity:0.20000000298023224"/></g><g style="mask:url(#a)"><path d="M554.3,461.1a22.89,22.89,0,0,1-22.9-22.9v1.91A22.89,22.89,0,0,0,554.3,463H623V461.1Z" transform="translate(-378.73 -369.5)" style="fill:#311b92;fill-opacity:0.10000000149011612"/></g><path d="M531.4,369.5H401.63a23,23,0,0,0-22.9,22.9V682.47a23,23,0,0,0,22.9,22.9H600.1a23,23,0,0,0,22.9-22.9V461.1Z" transform="translate(-378.73 -369.5)" style="fill:url(#i)"/></svg>